Coordinates
version=1
nRows=13
nColumns=40
inDegrees=yes

Units are S.I. units (second, meters, Newtons, ...)
Angles are in degrees.

endheader
time	pelvis_tilt	pelvis_list	pelvis_rotation	pelvis_tx	pelvis_ty	pelvis_tz	hip_flexion_r	hip_adduction_r	hip_rotation_r	knee_angle_r	knee_angle_r_beta	ankle_angle_r	subtalar_angle_r	mtp_angle_r	hip_flexion_l	hip_adduction_l	hip_rotation_l	knee_angle_l	knee_angle_l_beta	ankle_angle_l	subtalar_angle_l	mtp_angle_l	lumbar_extension	lumbar_bending	lumbar_rotation	arm_flex_r	arm_add_r	arm_rot_r	elbow_flex_r	pro_sup_r	wrist_flex_r	wrist_dev_r	arm_flex_l	arm_add_l	arm_rot_l	elbow_flex_l	pro_sup_l	wrist_flex_l	wrist_dev_l
     48.09250000	     -4.64799723	     -3.79307326	      2.81178039	      0.96991163	      0.92405702	      0.45164889	      4.37499741	     -2.78811416	    -14.03397955	     29.33290905	     29.33290905	     15.59282174	      0.37805502	    -10.24487787	     24.76846984	     -3.93160916	     -1.28270101	     26.27932184	     26.27932184	      9.46168124	    -14.30870992	      4.81955975	     -8.56273112	      6.04110956	      3.38710315	     32.96223527	    -15.67424577	     -2.57626194	     92.27775995	     43.94118584	      0.00000000	      0.00000000	     -9.34649567	     -7.92352025	      3.53371210	     29.67022698	     44.82203864	      0.00000000	      0.00000000
     48.10571429	     -4.61149548	     -3.69854133	      2.61570766	      0.97022735	      0.92480599	      0.44885057	      5.61476559	     -3.53250821	    -13.48570290	     32.38017620	     32.38017620	     14.41807512	     -0.58299398	    -11.49878672	     24.08463750	     -3.72394627	     -1.51310581	     26.11178724	     26.11178724	      9.85911304	    -14.28923899	      4.67003870	     -8.63275849	      5.94937813	      3.43593627	     31.61725823	    -15.63508655	     -2.45706703	     90.89259244	     43.99161165	      0.00000000	      0.00000000	     -8.20139411	     -8.11606001	      3.44463980	     30.56934357	     44.85982540	      0.00000000	      0.00000000
     48.11892857	     -4.58764936	     -3.62675987	      2.41539360	      0.97043208	      0.92536339	      0.44618745	      7.05717343	     -4.24323640	    -12.85300929	     35.66954973	     35.66954973	     12.88170719	     -1.80173744	    -12.92875785	     23.44437208	     -3.54444004	     -1.73590543	     25.98085508	     25.98085508	     10.24602083	    -14.28325776	      4.51158770	     -8.67136492	      5.86123953	      3.47332374	     30.23040393	    -15.57012139	     -2.37815979	     89.29012233	     44.04840611	      0.00000000	      0.00000000	     -7.03880554	     -8.36049850	      3.32949420	     31.63265592	     44.89987941	      0.00000000	      0.00000000
     48.13214286	     -4.50264137	     -3.54541593	      2.25219087	      0.97054405	      0.92580505	      0.44355597	      8.59921678	     -4.94656864	    -12.17564112	     39.15511811	     39.15511811	     11.04482563	     -3.19295038	    -14.27149200	     22.80070084	     -3.35427523	     -1.93894869	     25.93708782	     25.93708782	     10.58081516	    -14.25900257	      4.35412974	     -8.77836217	      5.81101613	      3.48628913	     28.78025380	    -15.42417450	     -2.27829881	     87.59459240	     44.10475504	      0.00000000	      0.00000000	     -5.78568810	     -8.64906591	      3.20359169	     32.78035857	     44.94110247	      0.00000000	      0.00000000
     48.14535714	     -4.45714710	     -3.67487535	      2.11016432	      0.97059838	      0.92607301	      0.44119177	     10.06840740	     -5.19108915	    -11.27150363	     41.99940012	     41.99940012	      6.65925670	     -6.93323803	    -21.36294270	     22.23068671	     -3.38193858	     -2.01298138	     25.91244786	     25.91244786	     10.99768177	    -14.23060488	      4.07248435	     -8.75222160	      5.91961502	      2.67117286	     28.34952795	    -14.29953439	     -2.38551834	     83.30338214	     44.31925094	      0.00000000	      0.00000000	     -5.90471806	     -9.31404845	      3.09255787	     36.41047230	     45.00622397	      0.00000000	      0.00000000
     48.15857143	     -4.39573387	     -3.60537529	      1.94923773	      0.97049405	      0.92614324	      0.43880739	     11.93594845	     -5.84942449	    -10.61364520	     45.79943681	     45.79943681	      4.56451231	     -8.32631314	    -21.48937637	     21.66084716	     -3.20899909	     -2.18764102	     25.91841553	     25.91841553	     11.40606995	    -14.20702560	      3.88905915	     -8.84271446	      5.87149404	      2.76026810	     26.67742014	    -14.40982380	     -2.07773645	     81.83355701	     44.36092626	      0.00000000	      0.00000000	     -4.39873729	     -9.65403300	      2.92687928	     37.34239024	     45.05715085	      0.00000000	      0.00000000
     48.17178571	     -4.34494201	     -3.69304412	      1.80827651	      0.97026052	      0.92615288	      0.43664104	     13.85313716	     -6.13112583	     -9.76875495	     49.41309477	     49.41309477	      2.07335249	    -10.45245491	    -21.28215350	     21.19178483	     -3.21386560	     -2.29319259	     26.05271415	     26.05271415	     11.84416816	    -14.18376984	      3.68534268	     -8.89681138	      5.96535100	      2.90978057	     25.11556974	    -14.43735807	     -2.09655469	     79.32334553	     44.45617465	      0.00000000	      0.00000000	     -2.96871867	    -10.03406307	      2.80297049	     38.82306385	     45.11132756	      0.00000000	      0.00000000
     48.18500000	     -4.22850663	     -3.67879417	      1.67320254	      0.97001730	      0.92609461	      0.43458655	     15.77008840	     -6.53884147	     -9.06528917	     53.03171623	     53.03171623	     -0.23349410	    -12.11363440	    -20.34844749	     20.65027677	     -3.14874358	     -2.53416189	     26.19507824	     26.19507824	     12.36510006	    -13.98983462	      3.50336541	     -8.99851728	      5.93864491	      2.44435490	     24.16299994	    -13.67052303	     -2.26893228	     75.80369049	     44.61665015	      0.00000000	      0.00000000	     -2.10145017	    -10.72265430	      2.89216369	     40.93878095	     45.16697202	      0.00000000	      0.00000000
     48.19821429	     -4.12089079	     -3.70502627	      1.54730479	      0.96968410	      0.92601647	      0.43266090	     17.69842462	     -6.82807642	     -8.41122801	     56.45701275	     56.45701275	     -2.24705608	    -13.51516684	    -18.56316669	     20.13810084	     -3.11675491	     -2.72030316	     26.34158405	     26.34158405	     12.81159576	    -13.93427234	      3.34259078	     -9.15101062	      5.95616209	      2.45810911	     22.53845544	    -13.66921118	     -2.21117489	     73.33415644	     44.70991931	      0.00000000	      0.00000000	     -0.54692273	    -11.16804701	      2.79628345	     42.29536308	     45.22890698	      0.00000000	      0.00000000
     48.21142857	     -3.95783163	     -3.61723064	      1.50694774	      0.96936570	      0.92604223	      0.43067331	     19.47475194	     -7.28407259	     -7.94549119	     59.53666364	     59.53666364	     -4.26338718	    -14.63736300	    -17.46211043	     19.51609212	     -2.92474499	     -2.79562842	     26.40019093	     26.40019093	     13.23460125	    -13.82725207	      3.15951784	     -9.37751898	      5.85819866	      2.25275543	     20.64791121	    -13.46616686	     -2.00246434	     71.74981740	     44.75174815	      0.00000000	      0.00000000	      1.17470178	    -11.67411215	      2.61210232	     43.21048179	     45.27903189	      0.00000000	      0.00000000
     48.22464286	     -3.88754274	     -3.77280915	      1.38229367	      0.96890139	      0.92604920	      0.42911124	     21.48801550	     -7.19729393	     -7.28735025	     62.62305076	     62.62305076	     -4.35367407	    -14.87231057	    -11.20551658	     19.03089712	     -3.08487699	     -3.05885402	     26.50589615	     26.50589615	     13.79366824	    -13.45199854	      3.04983272	     -9.39064945	      6.01421681	      2.09621686	     19.94540770	    -12.80725550	     -2.93697845	     66.22956799	     44.99500011	      0.00000000	      0.00000000	      2.40011699	    -12.30441928	      2.98852091	     45.10554594	     45.31820251	      0.00000000	      0.00000000
     48.23785714	     -3.82430983	     -3.73757038	      1.27014755	      0.96846187	      0.92611751	      0.42752291	     23.26375688	     -7.43119826	     -6.90188120	     64.98542910	     64.98542910	     -5.63999583	    -15.75926359	     -9.92401713	     18.43068312	     -2.96538831	     -3.15571819	     26.38510579	     26.38510579	     14.20871986	    -13.42611267	      2.95812312	     -9.53129337	      5.92162619	      2.22918009	     17.91039501	    -13.00632778	     -2.73826907	     64.33124127	     45.04784985	      0.00000000	      0.00000000	      4.12446814	    -12.64955265	      2.74026766	     46.16990219	     45.37964916	      0.00000000	      0.00000000
     48.25107143	     -3.62085032	     -3.84938551	      1.25868285	      0.96805598	      0.92660672	      0.42593618	     24.74879681	     -7.42152276	     -6.62387716	     66.90285690	     66.90285690	     -5.95987867	    -16.04906272	     -7.13590763	     17.70597570	     -3.00912993	     -3.19841460	     26.29340379	     26.29340379	     14.58591498	    -13.23674248	      2.90537264	     -9.75202027	      6.07117275	      2.50272845	     16.25723288	    -13.12792918	     -2.91437078	     60.66173096	     45.18165670	      0.00000000	      0.00000000	      6.01558435	    -12.91883465	      2.64979694	     47.49635783	     45.44237663	      0.00000000	      0.00000000
